<svg width="41" height="40" viewBox="0 0 41 40" fill="none" xmlns="http://www.w3.org/2000/svg">
<path fill-rule="evenodd" clip-rule="evenodd" d="M21.7308 17.5007H14.4966C13.8333 17.5007 13.1975 17.764 12.7283 18.2332L7.13663 23.8248C6.15497 22.9481 4.64747 22.9807 3.70497 23.9232L1.89496 25.7332C0.919128 26.709 0.919128 28.2923 1.89496 29.2682C4.13163 31.5048 8.9683 36.3415 11.205 38.5782C12.1808 39.554 13.7641 39.554 14.7408 38.5782L16.55 36.7682C17.4925 35.8257 17.525 34.319 16.6483 33.3365L17.2408 32.7448C17.3966 32.5882 17.6083 32.5007 17.83 32.5007H24.7825C25.4458 32.5007 26.0816 32.2373 26.55 31.7682C28.4633 29.8557 35.4958 22.8223 38.5683 19.7506C39.8108 18.5082 39.8108 16.4932 38.5683 15.2507C38.5675 15.2507 38.5675 15.2498 38.5666 15.2498C37.6141 14.2973 36.2291 14.0173 35.0216 14.4373C35.7516 13.1223 36.1666 11.6098 36.1666 10.0007C36.1666 4.94148 32.0591 0.833984 27 0.833984C21.9408 0.833984 17.8333 4.94148 17.8333 10.0007C17.8333 13.0998 19.3741 15.8415 21.7308 17.5007ZM3.07413 26.9115L4.88331 25.1015C5.20914 24.7765 5.73663 24.7765 6.06163 25.1015L15.3716 34.4115C15.6966 34.7365 15.6966 35.2648 15.3716 35.5898L13.5616 37.3998C13.2366 37.7248 12.7091 37.7248 12.3833 37.3998L3.07413 28.0898C2.7483 27.7648 2.7483 27.2365 3.07413 26.9115ZM15.4725 32.1557L16.0616 31.5665C16.5308 31.0973 17.1666 30.834 17.83 30.834H24.7825C25.0033 30.834 25.215 30.7465 25.3716 30.5898C25.3716 30.5898 37.39 18.5723 37.39 18.5715C37.9808 17.9807 37.9808 17.0206 37.39 16.429L37.3883 16.4281C36.7466 15.7865 35.7208 15.7398 35.0233 16.3207C32.1433 18.7207 26.015 23.9673 26.015 23.9673C25.8633 24.0965 25.6716 24.1673 25.4725 24.1673H18.8058C18.3458 24.1673 17.9725 23.794 17.9725 23.334C17.9725 22.874 18.3458 22.5007 18.8058 22.5007H22.9725C23.8933 22.5007 24.6391 21.7548 24.6391 20.834C24.6391 19.9132 23.8933 19.1673 22.9725 19.1673H14.4966C14.275 19.1673 14.0633 19.2548 13.9075 19.4115L8.31746 25.0007L15.4725 32.1557ZM29.4683 18.8307C28.6825 19.0498 27.855 19.1673 27 19.1673C26.5983 19.1673 26.2025 19.1415 25.815 19.0915C26.1266 19.5981 26.3058 20.1948 26.3058 20.834C26.3058 21.0982 26.275 21.3548 26.2175 21.6015C27.0641 20.8782 28.24 19.8748 29.4683 18.8307ZM27 17.5007C22.8608 17.5007 19.5 14.1398 19.5 10.0007C19.5 5.86148 22.8608 2.50065 27 2.50065C31.1391 2.50065 34.5 5.86148 34.5 10.0007C34.5 14.1398 31.1391 17.5007 27 17.5007Z" fill="white"/>
<path fill-rule="evenodd" clip-rule="evenodd" d="M24.4999 7.5013V12.5013H23.6666C23.2066 12.5013 22.8333 12.8746 22.8333 13.3346C22.8333 13.7946 23.2066 14.168 23.6666 14.168H26.1666V15.0013C26.1666 15.4613 26.5399 15.8346 26.9999 15.8346C27.4599 15.8346 27.8333 15.4613 27.8333 15.0013V14.168H28.6666C30.0474 14.168 31.1666 13.0488 31.1666 11.668C31.1666 11.028 30.9258 10.4438 30.5299 10.0013C30.9258 9.5588 31.1666 8.97464 31.1666 8.33464C31.1666 6.9538 30.0474 5.83464 28.6666 5.83464H27.8333V5.0013C27.8333 4.5413 27.4599 4.16797 26.9999 4.16797C26.5399 4.16797 26.1666 4.5413 26.1666 5.0013V5.83464H23.6666C23.2066 5.83464 22.8333 6.20797 22.8333 6.66797C22.8333 7.12797 23.2066 7.5013 23.6666 7.5013H24.4999ZM28.6666 10.8346H26.1666V12.5013H28.6666C29.1266 12.5013 29.4999 12.128 29.4999 11.668C29.4999 11.208 29.1266 10.8346 28.6666 10.8346ZM28.6666 7.5013H26.1666V9.16797H28.6666C29.1266 9.16797 29.4999 8.79464 29.4999 8.33464C29.4999 7.87464 29.1266 7.5013 28.6666 7.5013Z" fill="white"/>
</svg>
