<svg width="40" height="40" viewBox="0 0 40 40" fill="none" xmlns="http://www.w3.org/2000/svg">
<path d="M25.972 9.94293C25.6076 9.57886 25.1233 9.37805 24.6082 9.37805C24.093 9.37805 23.6087 9.57886 23.2446 9.94293C22.8802 10.3073 22.6794 10.7916 22.6794 11.3068C22.6794 11.8219 22.8802 12.3062 23.2443 12.6703L26.5298 15.9558C26.8939 16.3199 27.3785 16.5207 27.8937 16.5207C28.4088 16.5207 28.8928 16.3199 29.2572 15.9558L36.2769 8.93616C36.6412 8.57178 36.8417 8.08746 36.8417 7.57263C36.8417 7.0575 36.6412 6.57318 36.2769 6.2088C35.9128 5.84442 35.4282 5.64392 34.913 5.64392C34.3979 5.64392 33.9136 5.84442 33.5495 6.2088L32.7756 6.98273C32.2021 6.5451 31.5729 6.19415 30.9061 5.94025V5.06287C30.9061 3.99933 30.0409 3.13416 28.9777 3.13416H22.9303V2.4646C22.9303 1.10565 21.8246 0 20.4657 0H13.7216C12.3627 0 11.257 1.10565 11.257 2.4646V5.24933C11.257 6.00433 11.8713 6.61865 12.6263 6.61865H21.561C22.316 6.61865 22.9303 6.00433 22.9303 5.24933V4.30786H28.9774C29.3936 4.30786 29.7324 4.64661 29.7324 5.06287V5.60333C29.2493 5.50568 28.7549 5.4538 28.2547 5.4538C24.1443 5.4538 20.8002 8.79791 20.8002 12.9083C20.8002 17.0187 24.1443 20.3629 28.2547 20.3629C28.7561 20.3629 29.2505 20.3125 29.7324 20.2158V38.0716C29.7324 38.4879 29.3936 38.8263 28.9774 38.8263H5.20966C4.7934 38.8263 4.45496 38.4879 4.45496 38.0716V5.06287C4.45496 4.64661 4.7934 4.30786 5.20966 4.30786H9.11072C9.43481 4.30786 9.69757 4.0451 9.69757 3.72101C9.69757 3.39691 9.43481 3.13416 9.11072 3.13416H5.20966C4.14642 3.13416 3.28125 3.99933 3.28125 5.06287V38.0716C3.28125 39.1348 4.14642 40 5.20966 40H28.9777C30.0409 40 30.9061 39.1348 30.9061 38.0716V19.8764C31.8405 19.5209 32.7023 18.9783 33.4396 18.2645C34.8337 16.9147 35.6384 15.105 35.705 13.1686C35.7159 12.8448 35.4626 12.5732 35.1385 12.562C34.8169 12.5513 34.5432 12.8043 34.5319 13.1284C34.4382 15.8539 32.6459 18.1042 30.1846 18.8895C30.1508 18.8974 30.1178 18.9078 30.0867 18.9215C29.5074 19.0958 28.8925 19.1891 28.2547 19.1891C24.7916 19.1891 21.9739 16.3715 21.9739 12.9083C21.9739 9.44519 24.7916 6.6275 28.2547 6.6275C29.585 6.6275 30.8707 7.04803 31.9373 7.82104L27.8937 11.8649L25.972 9.94293ZM21.7566 5.24933C21.7566 5.35736 21.669 5.44495 21.561 5.44495H12.6263C12.5183 5.44495 12.4307 5.35736 12.4307 5.24933V2.4646C12.4307 1.75262 13.0096 1.17371 13.7216 1.17371H20.4657C21.1774 1.17371 21.7566 1.75262 21.7566 2.4646V5.24933ZM34.3796 7.03888C34.5221 6.89606 34.7116 6.81763 34.913 6.81763C35.1147 6.81763 35.3043 6.89636 35.4471 7.03888C35.7413 7.33307 35.7413 7.81219 35.4471 8.10638L28.4271 15.126C28.2846 15.2686 28.0951 15.3473 27.8934 15.3473C27.6917 15.3473 27.5021 15.2686 27.3596 15.126L24.0741 11.8405C23.9316 11.698 23.8531 11.5085 23.8531 11.3068C23.8531 11.105 23.9316 10.9155 24.0744 10.773C24.2169 10.6305 24.4064 10.5518 24.6082 10.5518C24.8096 10.5518 24.9994 10.6305 25.1419 10.773L27.4786 13.1097C27.7078 13.3389 28.0792 13.3389 28.3084 13.1097L34.3796 7.03888Z" fill="white"/>
<path d="M19.2529 14.7305H12.1023C11.7782 14.7305 11.5157 14.9932 11.5157 15.3173C11.5157 15.6411 11.7782 15.9039 12.1023 15.9039H19.2529C19.577 15.9039 19.8397 15.6411 19.8397 15.3173C19.8397 14.9932 19.577 14.7305 19.2529 14.7305Z" fill="white"/>
<path d="M10.9823 8.67188H7.03363C6.70953 8.67188 6.44678 8.93463 6.44678 9.25873C6.44678 9.58282 6.70953 9.84558 7.03363 9.84558H10.9823C11.3064 9.84558 11.5692 9.58282 11.5692 9.25873C11.5692 8.93463 11.3064 8.67188 10.9823 8.67188Z" fill="white"/>
<path d="M12.1023 18.6265H19.2529C19.577 18.6265 19.8397 18.3638 19.8397 18.0397C19.8397 17.7159 19.577 17.4531 19.2529 17.4531H12.1023C11.7782 17.4531 11.5157 17.7159 11.5157 18.0397C11.5157 18.3638 11.7782 18.6265 12.1023 18.6265Z" fill="white"/>
<path d="M21.723 21.8477H12.1023C11.7782 21.8477 11.5157 22.1104 11.5157 22.4345C11.5157 22.7586 11.7782 23.0214 12.1023 23.0214H21.723C22.0471 23.0214 22.3098 22.7586 22.3098 22.4345C22.3098 22.1104 22.0471 21.8477 21.723 21.8477Z" fill="white"/>
<path d="M12.1023 25.744H16.9128C17.2369 25.744 17.4993 25.4813 17.4993 25.1572C17.4993 24.8331 17.2369 24.5703 16.9128 24.5703H12.1023C11.7782 24.5703 11.5157 24.8331 11.5157 25.1572C11.5157 25.4813 11.7782 25.744 12.1023 25.744Z" fill="white"/>
<path d="M12.1023 30.1464H19.2529C19.577 30.1464 19.8397 29.8836 19.8397 29.5595C19.8397 29.2354 19.577 28.9727 19.2529 28.9727H12.1023C11.7782 28.9727 11.5157 29.2354 11.5157 29.5595C11.5157 29.8836 11.7782 30.1464 12.1023 30.1464Z" fill="white"/>
<path d="M12.1023 32.8687H21.723C22.0471 32.8687 22.3098 32.606 22.3098 32.2819C22.3098 31.9581 22.0471 31.6953 21.723 31.6953H12.1023C11.7782 31.6953 11.5157 31.9581 11.5157 32.2819C11.5157 32.606 11.7782 32.8687 12.1023 32.8687Z" fill="white"/>
<path d="M8.27911 14.2207C6.97205 14.2207 5.90881 15.2839 5.90881 16.591C5.90881 17.8981 6.97205 18.9613 8.27911 18.9613C9.58618 18.9613 10.6494 17.8981 10.6494 16.591C10.6494 15.2839 9.58618 14.2207 8.27911 14.2207ZM8.27911 17.7876C7.61932 17.7876 7.08252 17.2508 7.08252 16.591C7.08252 15.9312 7.61932 15.3944 8.27911 15.3944C8.9389 15.3944 9.47571 15.9312 9.47571 16.591C9.47571 17.2508 8.9389 17.7876 8.27911 17.7876Z" fill="white"/>
<path d="M8.27911 21.4258C6.97205 21.4258 5.90881 22.4893 5.90881 23.7961C5.90881 25.1031 6.97205 26.1664 8.27911 26.1664C9.58618 26.1664 10.6494 25.1031 10.6494 23.7961C10.6494 22.4893 9.58618 21.4258 8.27911 21.4258ZM8.27911 24.993C7.61932 24.993 7.08252 24.4562 7.08252 23.7964C7.08252 23.1363 7.61932 22.5995 8.27911 22.5995C8.9389 22.5995 9.47571 23.1363 9.47571 23.7964C9.47571 24.4562 8.9389 24.993 8.27911 24.993Z" fill="white"/>
<path d="M8.27911 28.5508C6.97205 28.5508 5.90881 29.614 5.90881 30.9211C5.90881 32.2281 6.97205 33.2914 8.27911 33.2914C9.58618 33.2914 10.6494 32.2281 10.6494 30.9211C10.6494 29.614 9.58618 28.5508 8.27911 28.5508ZM8.27911 32.1177C7.61932 32.1177 7.08252 31.5809 7.08252 30.9211C7.08252 30.2613 7.61932 29.7245 8.27911 29.7245C8.9389 29.7245 9.47571 30.2613 9.47571 30.9211C9.47571 31.5809 8.9389 32.1177 8.27911 32.1177Z" fill="white"/>
</svg>
