<svg width="41" height="40" viewBox="0 0 41 40" fill="none" xmlns="http://www.w3.org/2000/svg">
<g clip-path="url(#clip0_2273_892)">
<path d="M34.8333 10.7441H6.49999C3.28327 10.7441 0.666626 13.3608 0.666626 16.5774V33.2441C0.666626 36.4607 3.28327 39.0774 6.49999 39.0774H34.8333C38.05 39.0774 40.6667 36.4608 40.6667 33.2441V16.5774C40.6666 13.3608 38.05 10.7441 34.8333 10.7441ZM39 33.2441C39 35.5408 37.1316 37.4108 34.8333 37.4108H6.49999C4.20163 37.4108 2.33334 35.5408 2.33334 33.2441V16.5774C2.33334 14.2808 4.2017 12.4108 6.49999 12.4108H34.8333C37.1317 12.4108 39 14.2808 39 16.5774V33.2441Z" fill="white"/>
<path d="M33.1666 22.4121C31.7883 22.4121 30.6666 23.5338 30.6666 24.9121C30.6666 26.2905 31.7883 27.4121 33.1666 27.4121C34.545 27.4121 35.6666 26.2905 35.6666 24.9121C35.6666 23.5338 34.545 22.4121 33.1666 22.4121ZM33.1666 25.7455C32.7083 25.7455 32.3333 25.3721 32.3333 24.9121C32.3333 24.4521 32.7083 24.0788 33.1666 24.0788C33.625 24.0788 34 24.4521 34 24.9121C34 25.3721 33.625 25.7455 33.1666 25.7455Z" fill="white"/>
<path d="M39.8333 19.0781H33.1666C29.95 19.0781 27.3333 21.6948 27.3333 24.9115C27.3333 28.1281 29.9499 30.7448 33.1666 30.7448H39.8333C40.2933 30.7448 40.6666 30.3715 40.6666 29.9115V19.9115C40.6666 19.4515 40.2933 19.0781 39.8333 19.0781ZM39 29.0781H33.1666C30.8683 29.0781 29 27.2081 29 24.9115C29 22.6148 30.8683 20.7448 33.1666 20.7448H39V29.0781Z" fill="white"/>
<path d="M34.7449 11.2048L31.2166 4.14804C30.5049 2.72468 29.2766 1.67639 27.7599 1.19639C26.2433 0.718035 24.6366 0.868035 23.2333 1.62139L6.10493 10.8448C5.69993 11.0614 5.54829 11.5681 5.76657 11.9731C5.98493 12.3781 6.49157 12.5298 6.89493 12.3115L24.0266 3.09139C25.0266 2.55139 26.1782 2.44304 27.2582 2.78639C28.3416 3.12804 29.2182 3.87804 29.7266 4.89475L33.2549 11.9514C33.4016 12.243 33.6949 12.4114 33.9999 12.4114C34.1249 12.4114 34.2516 12.383 34.3716 12.323C34.7832 12.1164 34.9499 11.6164 34.7449 11.2048Z" fill="white"/>
<path d="M31.4016 4.51718C31.1816 4.11053 30.675 3.96053 30.2716 4.17718L17.89 10.8438C17.485 11.0622 17.3333 11.5672 17.5516 11.9722C17.7016 12.2522 17.9882 12.4105 18.285 12.4105C18.4183 12.4105 18.555 12.3789 18.6816 12.3122L31.0632 5.64553C31.4682 5.42718 31.62 4.92218 31.4016 4.51718Z" fill="white"/>
<path d="M15.6666 5.74414H9.83327C4.77999 5.74414 0.666626 9.85578 0.666626 14.9108V16.5774C0.666626 17.0374 1.03999 17.4108 1.49999 17.4108C1.95999 17.4108 2.33334 17.0374 2.33334 16.5774V14.9108C2.33334 10.7758 5.69834 7.41078 9.83334 7.41078H15.6666C16.1266 7.41078 16.5 7.03742 16.5 6.57742C16.5 6.11742 16.1266 5.74414 15.6666 5.74414Z" fill="white"/>
<path d="M31.5 5.74414C31.04 5.74414 30.6666 6.1175 30.6666 6.5775C30.6666 7.0375 31.04 7.41086 31.5 7.41086C35.635 7.41086 39 10.7759 39 14.9109V16.5775C39 17.0375 39.3733 17.4109 39.8333 17.4109C40.2933 17.4109 40.6667 17.0375 40.6667 16.5775V14.9109C40.6666 9.85578 36.5533 5.74414 31.5 5.74414Z" fill="white"/>
</g>
<defs>
<clipPath id="clip0_2273_892">
<rect width="40" height="40" fill="white" transform="translate(0.666626)"/>
</clipPath>
</defs>
</svg>
